<svg width="16" height="16" viewBox="0 0 16 16" fill="none" xmlns="http://www.w3.org/2000/svg">
<path d="M10.8964 2.50004L8.75 2.50004L8.75 0.75C8.75 0.335786 8.41421 0 8 0C7.58579 0 7.25 0.335786 7.25 0.75L7.25 2.50004L5.10355 2.50004C4.88083 2.50004 4.76928 2.76932 4.92678 2.92681L7.82322 5.82326C7.92085 5.92089 8.07914 5.92089 8.17677 5.82326L11.0732 2.92681C11.2307 2.76932 11.1192 2.50004 10.8964 2.50004Z" fill="#0969DA"/>
<path d="M8.75 14.75C8.75 15.1642 8.41421 15.5 8 15.5C7.58579 15.5 7.25 15.1642 7.25 14.75L7.25 13H5.10355C4.88083 13 4.76928 12.7307 4.92677 12.5732L7.82322 9.67674C7.92085 9.57911 8.07914 9.57911 8.17677 9.67674L11.0732 12.5732C11.2307 12.7307 11.1192 13 10.8964 13H8.75L8.75 14.75Z" fill="#0969DA"/>
<path d="M2.25 8.5C2.66421 8.5 3 8.16421 3 7.75C3 7.33579 2.66421 7 2.25 7H1.75C1.33579 7 1 7.33579 1 7.75C1 8.16421 1.33579 8.5 1.75 8.5H2.25Z" fill="#0969DA"/>
<path d="M6 7.75C6 8.16421 5.66421 8.5 5.25 8.5H4.75C4.33579 8.5 4 8.16421 4 7.75C4 7.33579 4.33579 7 4.75 7H5.25C5.66421 7 6 7.33579 6 7.75Z" fill="#0969DA"/>
<path d="M8.25 8.5C8.66421 8.5 9 8.16421 9 7.75C9 7.33579 8.66421 7 8.25 7H7.75C7.33579 7 7 7.33579 7 7.75C7 8.16421 7.33579 8.5 7.75 8.5H8.25Z" fill="#0969DA"/>
<path d="M12 7.75C12 8.16421 11.6642 8.5 11.25 8.5H10.75C10.3358 8.5 10 8.16421 10 7.75C10 7.33579 10.3358 7 10.75 7H11.25C11.6642 7 12 7.33579 12 7.75Z" fill="#0969DA"/>
<path d="M14.25 8.5C14.6642 8.5 15 8.16421 15 7.75C15 7.33579 14.6642 7 14.25 7H13.75C13.3358 7 13 7.33579 13 7.75C13 8.16421 13.3358 8.5 13.75 8.5H14.25Z" fill="#0969DA"/>
</svg>
