<svg xmlns="http://www.w3.org/2000/svg" width="16" height="16" viewBox="0 0 16 16" fill="none">
  <path d="M8.17678 0.176739L11.0732 3.07319C11.2307 3.23068 11.1192 3.49996 10.8964 3.49996H8.75V5.25C8.75 5.66421 8.41421 6 8 6C7.58579 6 7.25 5.66421 7.25 5.25V3.49996H5.10355C4.88083 3.49996 4.76928 3.23068 4.92678 3.07319L7.82322 0.176739C7.92085 0.0791079 8.07915 0.0791079 8.17678 0.176739Z" fill="#0969DA"/>
  <path d="M7.25 10.25C7.25 9.83579 7.58579 9.5 8 9.5C8.41421 9.5 8.75 9.83579 8.75 10.25V12H10.8964C11.1192 12 11.2307 12.2693 11.0732 12.4268L8.17678 15.3233C8.07915 15.4209 7.92085 15.4209 7.82322 15.3233L4.92678 12.4268C4.76929 12.2693 4.88083 12 5.10355 12H7.25V10.25Z" fill="#0969DA"/>
  <path d="M2.25 8.5C2.66421 8.5 3 8.16421 3 7.75C3 7.33579 2.66421 7 2.25 7H1.75C1.33579 7 1 7.33579 1 7.75C1 8.16421 1.33579 8.5 1.75 8.5H2.25Z" fill="#0969DA"/>
  <path d="M6 7.75C6 8.16421 5.66421 8.5 5.25 8.5H4.75C4.33579 8.5 4 8.16421 4 7.75C4 7.33579 4.33579 7 4.75 7H5.25C5.66421 7 6 7.33579 6 7.75Z" fill="#0969DA"/>
  <path d="M8.25 8.5C8.66421 8.5 9 8.16421 9 7.75C9 7.33579 8.66421 7 8.25 7H7.75C7.33579 7 7 7.33579 7 7.75C7 8.16421 7.33579 8.5 7.75 8.5H8.25Z" fill="#0969DA"/>
  <path d="M12 7.75C12 8.16421 11.6642 8.5 11.25 8.5H10.75C10.3358 8.5 10 8.16421 10 7.75C10 7.33579 10.3358 7 10.75 7H11.25C11.6642 7 12 7.33579 12 7.75Z" fill="#0969DA"/>
  <path d="M14.25 8.5C14.6642 8.5 15 8.16421 15 7.75C15 7.33579 14.6642 7 14.25 7H13.75C13.3358 7 13 7.33579 13 7.75C13 8.16421 13.3358 8.5 13.75 8.5H14.25Z" fill="#0969DA"/>
</svg>